wght100_wdth125.ufo
<glyph name="A" format="2">
	<unicode hex="0041"/>
	<advance width="1434"/>
	<outline>
		<contour>
			<point x="-99.9167480469" y="0" type="line"/>
			<point x="-97.9167480469" y="100.001953125" type="line"/>
			<point x="77.0856933594" y="135.001953125" type="line"/>
			<point x="270.0451049805" y="576.0979003906" type="line"/>
			<point x="619.3795776367" y="1508" type="line"/>
			<point x="742.4682617188" y="1508" type="line"/>
			<point x="1117.8565063477" y="600.329284668" type="line"/>
			<point x="1308.7830810547" y="135.001953125" type="line"/>
			<point x="1498.7855224609" y="100.001953125" type="line"/>
			<point x="1496.7855224609" y="0" type="line"/>
			<point x="911.9244995117" y="0" type="line"/>
			<point x="914.9244995117" y="100.001953125" type="line"/>
			<point x="1115.926940918" y="140.001953125" type="line"/>
			<point x="953.5875854492" y="568.9071655273" type="line"/>
			<point x="779" y="1132" type="line"/>
			<point x="742" y="1246" type="line"/>
			<point x="732" y="1246" type="line"/>
			<point x="695" y="1132" type="line"/>
			<point x="408.984375" y="550.9923095703" type="line"/>
			<point x="240.5891113281" y="140.001953125" type="line"/>
			<point x="438.5915527344" y="100.001953125" type="line"/>
			<point x="436.5915527344" y="0" type="line"/>
		</contour>
		<contour>
			<point x="563.7446289062" y="608.0968017578" type="line"/>
			<point x="1002.8491210938" y="601.0806274414" type="line"/>
			<point x="1039.9706420898" y="470.8550415039" type="line"/>
			<point x="559.7446289062" y="497.7100830078" type="line"/>
		</contour>
		<contour>
			<point x="289.2233886719" y="468.8550415039" type="line"/>
			<point x="318.2435913086" y="599.5161132812" type="line"/>
			<point x="563.7446289062" y="608.0968017578" type="line"/>
			<point x="559.7446289062" y="497.7100830078" type="line"/>
		</contour>
	</outline>
	<anchor name="bottom" x="735" y="0"/>
	<anchor name="ogonek" x="1318" y="0"/>
	<anchor name="tonos" x="492" y="1500"/>
	<anchor name="top" x="753" y="1500"/>
</glyph>
<glyph name="B" format="2">
	<unicode hex="0042"/>
	<advance width="1221"/>
	<outline>
		<contour>
			<point x="81.99609375" y="0" type="line"/>
			<point x="81.99609375" y="100.001953125" type="line"/>
			<point x="289.9985351562" y="134.001953125" type="line"/>
			<point x="291.9985351562" y="760" type="line"/>
			<point x="289.9985351562" y="1359.7177734375" type="line"/>
			<point x="81.99609375" y="1393.7177734375" type="line"/>
			<point x="81.99609375" y="1500" type="line"/>
			<point x="647.5968017578" y="1500" type="line" smooth="yes"/>
			<point x="844.5269165039" y="1500"/>
			<point x="1052.9902954102" y="1321"/>
			<point x="1052.9902954102" y="1171" type="qcurve" smooth="yes"/>
			<point x="1052.9902954102" y="1027"/>
			<point x="928.0637817383" y="849"/>
			<point x="862" y="831" type="qcurve"/>
			<point x="862" y="821" type="line"/>
			<point x="954.1122436523" y="813"/>
			<point x="1150.0998535156" y="619"/>
			<point x="1150.0998535156" y="442" type="qcurve" smooth="yes"/>
			<point x="1150.0998535156" y="236"/>
			<point x="863.8888549805" y="0"/>
			<point x="657.4667358398" y="0" type="qcurve" smooth="yes"/>
		</contour>
		<contour>
			<point x="470.561340332" y="134.5804443359" type="line"/>
			<point x="493.561340332" y="120.9675292969" type="line"/>
			<point x="647.4808349609" y="120.9675292969" type="line" smooth="yes"/>
			<point x="759.1441650391" y="120.9675292969"/>
			<point x="964.1880493164" y="247.5205688477"/>
			<point x="964.1880493164" y="440" type="qcurve" smooth="yes"/>
			<point x="964.1880493164" y="598.5997924805"/>
			<point x="786.9733276367" y="735.7098388672"/>
			<point x="669.4756469727" y="735.7098388672" type="qcurve" smooth="yes"/>
			<point x="475.8868408203" y="735.7098388672" type="line"/>
			<point x="466.8868408203" y="726.9678955078" type="line"/>
		</contour>
		<contour>
			<point x="466.3286743164" y="865.4193115234" type="line"/>
			<point x="477.3286743164" y="856.1128540039" type="line"/>
			<point x="661.303894043" y="856.1128540039" type="line" smooth="yes"/>
			<point x="735.7182617188" y="856.1128540039"/>
			<point x="871.9856567383" y="1015.0993041992"/>
			<point x="871.9856567383" y="1161" type="qcurve" smooth="yes"/>
			<point x="871.9856567383" y="1296.8034057617"/>
			<point x="724.0941772461" y="1370.5647583008"/>
			<point x="635.2634887695" y="1370.5647583008" type="qcurve" smooth="yes"/>
			<point x="504.1195068359" y="1370.5647583008" type="line"/>
			<point x="472.1195068359" y="1353.9518432617" type="line"/>
		</contour>
	</outline>
	<anchor name="bottom" x="614" y="0"/>
	<anchor name="top" x="614" y="1500"/>
</glyph>
<glyph name="C" format="2">
	<unicode hex="0043"/>
	<advance width="1318"/>
	<outline>
		<contour>
			<point x="80.9975585938" y="728" type="qcurve" smooth="yes"/>
			<point x="80.9975585938" y="1095"/>
			<point x="505.553894043" y="1519"/>
			<point x="827.1565551758" y="1519" type="qcurve" smooth="yes"/>
			<point x="999.7247314453" y="1519"/>
			<point x="1091.3380737305" y="1416"/>
			<point x="1117.5423583984" y="1358" type="qcurve"/>
			<point x="1157.9053955078" y="1500" type="line"/>
			<point x="1252.2116699219" y="1500" type="line"/>
			<point x="1252.2116699219" y="1038.9594726562" type="line"/>
			<point x="1143.9917602539" y="1038.9594726562" type="line"/>
			<point x="1122.5423583984" y="1157" type="line" smooth="yes"/>
			<point x="1093.5423583984" y="1317"/>
			<point x="909.6130981445" y="1384.6937866211"/>
			<point x="848.798034668" y="1384.6937866211" type="qcurve" smooth="yes"/>
			<point x="597.5510253906" y="1384.6937866211"/>
			<point x="267.1420288086" y="1065.4102172852"/>
			<point x="270.1420288086" y="733" type="qcurve" smooth="yes"/>
			<point x="273.1420288086" y="426.1614990234"/>
			<point x="591.0498046875" y="103.2255859375"/>
			<point x="869.2137451172" y="103.2255859375" type="qcurve" smooth="yes"/>
			<point x="1128.461730957" y="103.2255859375"/>
			<point x="1263.1333618164" y="289.0481567383"/>
			<point x="1237.6088867188" y="349.0321044922" type="qcurve"/>
			<point x="1325.4151611328" y="257" type="line"/>
			<point x="1308.1423950195" y="175"/>
			<point x="1116.940246582" y="-30"/>
			<point x="846.6573486328" y="-30" type="qcurve" smooth="yes"/>
			<point x="516.4071044922" y="-30"/>
			<point x="80.9975585938" y="378"/>
		</contour>
	</outline>
	<anchor name="bottom" x="836" y="0"/>
	<anchor name="top" x="836" y="1500"/>
</glyph>
<glyph name="D" format="2">
	<unicode hex="0044"/>
	<advance width="1586"/>
	<outline>
		<contour>
			<point x="81.99609375" y="0" type="line"/>
			<point x="81.99609375" y="100.001953125" type="line"/>
			<point x="289.9985351562" y="135.001953125" type="line"/>
			<point x="293.1148681641" y="754" type="line"/>
			<point x="289.9985351562" y="1359.7177734375" type="line"/>
			<point x="81.99609375" y="1393.7177734375" type="line"/>
			<point x="81.99609375" y="1500" type="line"/>
			<point x="792.3395996094" y="1500" type="line" smooth="yes"/>
			<point x="1062.567199707" y="1500"/>
			<point x="1505.4259643555" y="1130"/>
			<point x="1505.4259643555" y="777" type="qcurve" smooth="yes"/>
			<point x="1505.4259643555" y="397"/>
			<point x="1048.5197143555" y="-9"/>
			<point x="722.0604248047" y="-6" type="qcurve" smooth="yes"/>
		</contour>
		<contour>
			<point x="468.561340332" y="126.9675292969" type="line"/>
			<point x="495.9533691406" y="124.532043457"/>
			<point x="712.16796875" y="114.9675292969"/>
			<point x="845.1264038086" y="114.9675292969" type="qcurve" smooth="yes"/>
			<point x="935.2041015625" y="114.9675292969"/>
			<point x="1309.7233276367" y="435.8465576172"/>
			<point x="1308.7233276367" y="767" type="qcurve" smooth="yes"/>
			<point x="1307.7233276367" y="1085.303894043"/>
			<point x="928.5311889648" y="1375.3873291016"/>
			<point x="802.1204833984" y="1375.3873291016" type="qcurve" smooth="yes"/>
			<point x="687.2357177734" y="1375.3873291016"/>
			<point x="505.0211181641" y="1370.8228149414"/>
			<point x="466.561340332" y="1368.3873291016" type="qcurve"/>
			<point x="462.4450073242" y="758" type="line"/>
		</contour>
	</outline>
	<anchor name="bottom" x="686" y="0"/>
	<anchor name="center" x="438" y="754"/>
	<anchor name="top" x="686" y="1500"/>
	<anchor name="liga" x="1590" y="0"/>
</glyph>
<glyph name="G" format="2">
	<unicode hex="0047"/>
	<advance width="1525"/>
	<outline>
		<contour>
			<point x="80.9975585938" y="730" type="qcurve" smooth="yes"/>
			<point x="80.9975585938" y="1088"/>
			<point x="534.6138305664" y="1521"/>
			<point x="760.7953491211" y="1521" type="qcurve" smooth="yes"/>
			<point x="955.9436645508" y="1521"/>
			<point x="1117.4174804688" y="1414.6451416016"/>
			<point x="1121.484375" y="1368.2902832031" type="qcurve"/>
			<point x="1160.6658935547" y="1500" type="line"/>
			<point x="1270.1536865234" y="1500" type="line"/>
			<point x="1270.1536865234" y="1038.1538085938" type="line"/>
			<point x="1158.9459228516" y="1038.1538085938" type="line"/>
			<point x="1134.484375" y="1171" type="line" smooth="yes"/>
			<point x="1112.484375" y="1293"/>
			<point x="1023.0274047852" y="1384.0486450195"/>
			<point x="788.9459838867" y="1384.0486450195" type="qcurve" smooth="yes"/>
			<point x="577.8268432617" y="1384.0486450195"/>
			<point x="268.7001953125" y="1052.296875"/>
			<point x="268.7001953125" y="745" type="qcurve" smooth="yes"/>
			<point x="268.7001953125" y="435.2608032227"/>
			<point x="657.5448608398" y="101.3546142578"/>
			<point x="829.7061157227" y="100.3546142578" type="qcurve" smooth="yes"/>
			<point x="1092.0539550781" y="99.3546142578"/>
			<point x="1277.3773193359" y="218.4514160156"/>
			<point x="1217.24609375" y="279.7578735352" type="qcurve"/>
			<point x="1219.24609375" y="553.998046875" type="line"/>
			<point x="929.2448730469" y="580.998046875" type="line"/>
			<point x="929.2448730469" y="683" type="line"/>
			<point x="1583.7878417969" y="683" type="line"/>
			<point x="1583.7878417969" y="580.998046875" type="line"/>
			<point x="1385.7854003906" y="553.998046875" type="line"/>
			<point x="1388.7854003906" y="199" type="line"/>
			<point x="1365.7006225586" y="125"/>
			<point x="1119.6815795898" y="-31"/>
			<point x="866.0231933594" y="-31" type="qcurve" smooth="yes"/>
			<point x="592.1125488281" y="-31"/>
			<point x="80.9975585938" y="371"/>
		</contour>
	</outline>
	<anchor name="bottom" x="872" y="0"/>
	<anchor name="top" x="836" y="1500"/>
</glyph>
<glyph name="J" format="2">
	<unicode hex="004A"/>
	<advance width="703"/>
	<outline>
		<contour>
			<point x="-4.2706298828" y="-218.8862304688" type="qcurve"/>
			<point x="-4.2706298828" y="-86.8837890625" type="line"/>
			<point x="14.8861083984" y="-85.7236328125"/>
			<point x="65.3563232422" y="-84.9633789062"/>
			<point x="93.6436767578" y="-83.4033203125" type="qcurve" smooth="yes"/>
			<point x="169.2633056641" y="-84.1787109375"/>
			<point x="281.4984130859" y="-8.0053710938"/>
			<point x="281.4984130859" y="124.9946289062" type="qcurve" smooth="yes"/>
			<point x="283.4984130859" y="754" type="line"/>
			<point x="280.4984130859" y="1359.7177734375" type="line"/>
			<point x="54.4959716797" y="1393.7177734375" type="line"/>
			<point x="54.4959716797" y="1500" type="line"/>
			<point x="688.9473266602" y="1500" type="line"/>
			<point x="688.9473266602" y="1401.3308105469" type="line"/>
			<point x="459.9448852539" y="1367.3308105469" type="line"/>
			<point x="456.8285522461" y="754" type="line"/>
			<point x="467.526550293" y="139.9946289062" type="line" smooth="yes"/>
			<point x="470.9191894531" y="-37.0053710938"/>
			<point x="282.2838745117" y="-217.8857421875"/>
			<point x="146.0720214844" y="-217.8857421875" type="qcurve" smooth="yes"/>
			<point x="101.7378540039" y="-217.8857421875"/>
			<point x="16.3514404297" y="-217.6860351562"/>
		</contour>
	</outline>
	<anchor name="bottom" x="376" y="-208"/>
	<anchor name="top" x="376" y="1500"/>
	<anchor name="_liga" x="0" y="0"/>
</glyph>
<glyph name="K" format="2">
	<unicode hex="004B"/>
	<advance width="1430"/>
	<outline>
		<contour>
			<point x="81.99609375" y="0" type="line"/>
			<point x="81.99609375" y="100.001953125" type="line"/>
			<point x="289.9985351562" y="135.001953125" type="line"/>
			<point x="291.9985351562" y="754" type="line"/>
			<point x="289.9985351562" y="1359.7177734375" type="line"/>
			<point x="81.99609375" y="1393.7177734375" type="line"/>
			<point x="81.99609375" y="1500" type="line"/>
			<point x="695.5637817383" y="1500" type="line"/>
			<point x="695.5637817383" y="1393.7177734375" type="line"/>
			<point x="470.561340332" y="1359.7177734375" type="line"/>
			<point x="467.4450073242" y="756.6359863281" type="line"/>
			<point x="470.561340332" y="135.001953125" type="line"/>
			<point x="685.5637817383" y="100.001953125" type="line"/>
			<point x="685.5637817383" y="0" type="line"/>
		</contour>
		<contour>
			<point x="374.371887207" y="401.7006835938" type="line"/>
			<point x="374.371887207" y="581.0337524414" type="line"/>
			<point x="1077.1826171875" y="1363.7177734375" type="line"/>
			<point x="890.1791992188" y="1393.7177734375" type="line"/>
			<point x="890.1791992188" y="1500" type="line"/>
			<point x="1436.7822875977" y="1500" type="line"/>
			<point x="1436.7822875977" y="1393.7177734375" type="line"/>
			<point x="1259.7791137695" y="1363.7177734375" type="line"/>
			<point x="728.4163818359" y="849" type="line"/>
			<point x="730.9268798828" y="832" type="line"/>
		</contour>
		<contour>
			<point x="624.2184448242" y="797.5134277344" type="line"/>
			<point x="736.9129638672" y="947.1302490234" type="line"/>
			<point x="1332.8377075195" y="135.001953125" type="line"/>
			<point x="1514.8408813477" y="100.001953125" type="line"/>
			<point x="1514.8408813477" y="0" type="line"/>
			<point x="879.8764648438" y="0" type="line"/>
			<point x="879.8764648438" y="100.001953125" type="line"/>
			<point x="1105.87890625" y="135.001953125" type="line"/>
		</contour>
	</outline>
	<anchor name="bottom" x="812" y="0"/>
	<anchor name="top" x="770" y="1500"/>
</glyph>
<glyph name="L" format="2">
	<unicode hex="004C"/>
	<advance width="1388"/>
	<outline>
		<contour>
			<point x="81.99609375" y="0" type="line"/>
			<point x="81.99609375" y="100.001953125" type="line"/>
			<point x="290.9985351562" y="137.001953125" type="line"/>
			<point x="292.9985351562" y="754" type="line"/>
			<point x="289.9985351562" y="1359.7177734375" type="line"/>
			<point x="63.99609375" y="1392.7177734375" type="line"/>
			<point x="63.99609375" y="1500" type="line"/>
			<point x="707.5637817383" y="1500" type="line"/>
			<point x="707.5637817383" y="1393.7177734375" type="line"/>
			<point x="470.561340332" y="1359.7177734375" type="line"/>
			<point x="467.4450073242" y="754" type="line"/>
			<point x="468.561340332" y="145.0159301758" type="line"/>
			<point x="483.561340332" y="117.0159301758" type="line"/>
			<point x="1198.0494995117" y="117.0159301758" type="line"/>
			<point x="1291.0494995117" y="469.7811889648" type="line"/>
			<point x="1400.0640258789" y="469.7811889648" type="line"/>
			<point x="1343.289855957" y="0" type="line"/>
		</contour>
	</outline>
	<anchor name="bottom" x="705" y="0"/>
	<anchor name="centerright" x="928" y="750"/>
	<anchor name="top" x="632" y="1500"/>
	<anchor name="topright" x="784" y="1001"/>
	<anchor name="center" x="378" y="750"/>
	<anchor name="liga" x="1264" y="0"/>
</glyph>
<glyph name="M" format="2">
	<unicode hex="004D"/>
	<advance width="2103"/>
	<outline>
		<contour>
			<point x="82.99609375" y="0" type="line"/>
			<point x="82.99609375" y="100.001953125" type="line"/>
			<point x="291.9985351562" y="135.001953125" type="line"/>
			<point x="295.9985351562" y="771" type="line"/>
			<point x="291.9985351562" y="1359.7177734375" type="line"/>
			<point x="81.99609375" y="1393.7177734375" type="line"/>
			<point x="81.99609375" y="1500" type="line"/>
			<point x="603.8526611328" y="1500" type="line"/>
			<point x="867.9116821289" y="773.6682739258" type="line"/>
			<point x="1004" y="370" type="line"/>
			<point x="1046" y="256" type="line"/>
			<point x="1056" y="256" type="line"/>
			<point x="1098" y="370" type="line"/>
			<point x="1237.7689819336" y="794.6751098633" type="line"/>
			<point x="1476.5272827148" y="1500" type="line"/>
			<point x="2020.8085327148" y="1500" type="line"/>
			<point x="2020.8085327148" y="1393.7177734375" type="line"/>
			<point x="1812.8060913086" y="1359.7177734375" type="line"/>
			<point x="1809.8060913086" y="735" type="line"/>
			<point x="1812.8060913086" y="135.001953125" type="line"/>
			<point x="2020.8085327148" y="100.001953125" type="line"/>
			<point x="2020.8085327148" y="0" type="line"/>
			<point x="1422.4735107422" y="0" type="line"/>
			<point x="1422.4735107422" y="100.001953125" type="line"/>
			<point x="1635.4759521484" y="135.001953125" type="line"/>
			<point x="1637.4759521484" y="737" type="line"/>
			<point x="1646" y="1210" type="line"/>
			<point x="1650" y="1329" type="line"/>
			<point x="1640" y="1331" type="line"/>
			<point x="1601" y="1224" type="line"/>
			<point x="1364.4593505859" y="748.4519042969" type="line"/>
			<point x="1099.0025024414" y="-24.3031616211" type="line"/>
			<point x="937.9389038086" y="-24.3031616211" type="line"/>
			<point x="713.7540893555" y="720.4853515625" type="line"/>
			<point x="458" y="1229" type="line"/>
			<point x="418" y="1336" type="line"/>
			<point x="408" y="1334" type="line"/>
			<point x="413" y="1215" type="line"/>
			<point x="428.6596069336" y="770" type="line"/>
			<point x="432.6596069336" y="135.001953125" type="line"/>
			<point x="633.6620483398" y="100.001953125" type="line"/>
			<point x="633.6620483398" y="0" type="line"/>
		</contour>
	</outline>
	<anchor name="bottom" x="1025" y="0"/>
	<anchor name="top" x="1058" y="1500"/>
</glyph>
<glyph name="N" format="2">
	<unicode hex="004E"/>
	<advance width="1590"/>
	<outline>
		<contour>
			<point x="81.99609375" y="0" type="line"/>
			<point x="81.99609375" y="100.001953125" type="line"/>
			<point x="284.9985351562" y="135.001953125" type="line"/>
			<point x="286.9985351562" y="753" type="line"/>
			<point x="284.9985351562" y="1359.7177734375" type="line"/>
			<point x="81.99609375" y="1393.7177734375" type="line"/>
			<point x="81.99609375" y="1500" type="line"/>
			<point x="526.5907592773" y="1500" type="line"/>
			<point x="871.6919555664" y="862.1228637695" type="line"/>
			<point x="1148" y="412" type="line"/>
			<point x="1206" y="310" type="line"/>
			<point x="1215" y="313" type="line"/>
			<point x="1211" y="434" type="line"/>
			<point x="1198.7997436523" y="751" type="line"/>
			<point x="1191.7997436523" y="1359.7177734375" type="line"/>
			<point x="968.7973022461" y="1393.7177734375" type="line"/>
			<point x="968.7973022461" y="1500" type="line"/>
			<point x="1528.9955444336" y="1500" type="line"/>
			<point x="1528.9955444336" y="1393.7177734375" type="line"/>
			<point x="1334.9931030273" y="1359.7177734375" type="line"/>
			<point x="1330.9931030273" y="753" type="line"/>
			<point x="1333.9931030273" y="-6" type="line"/>
			<point x="1168.2722167969" y="-6" type="line"/>
			<point x="724.2122802734" y="782.8787231445" type="line"/>
			<point x="472" y="1219" type="line"/>
			<point x="414" y="1321" type="line"/>
			<point x="405" y="1318" type="line"/>
			<point x="410" y="1198" type="line"/>
			<point x="420.3209228516" y="755" type="line"/>
			<point x="425.3209228516" y="135.001953125" type="line"/>
			<point x="606.3233642578" y="100.001953125" type="line"/>
			<point x="606.3233642578" y="0" type="line"/>
		</contour>
	</outline>
	<anchor name="bottom" x="800" y="0"/>
	<anchor name="top" x="800" y="1500"/>
	<anchor name="engtail" x="1324" y="0"/>
	<anchor name="liga" x="1600" y="0"/>
</glyph>
<glyph name="O" format="2">
	<unicode hex="004F"/>
	<advance width="1668"/>
	<outline>
		<contour>
			<point x="80.9975585938" y="728.6275024414" type="qcurve" smooth="yes"/>
			<point x="80.9975585938" y="1068"/>
			<point x="500.7166137695" y="1520"/>
			<point x="838.0191040039" y="1520" type="qcurve" smooth="yes"/>
			<point x="1169.0997314453" y="1520"/>
			<point x="1587.3830566406" y="1097"/>
			<point x="1587.3830566406" y="752" type="qcurve" smooth="yes"/>
			<point x="1587.3830566406" y="423"/>
			<point x="1142.4268188477" y="-31"/>
			<point x="836.321105957" y="-31" type="qcurve" smooth="yes"/>
			<point x="528.5523681641" y="-31"/>
			<point x="80.9975585938" y="374.8366699219"/>
		</contour>
		<contour>
			<point x="270.7001953125" y="779" type="qcurve" smooth="yes"/>
			<point x="270.7001953125" y="438.0130615234"/>
			<point x="591.7918701172" y="103.5642700195"/>
			<point x="833.2047729492" y="103.5642700195" type="qcurve" smooth="yes"/>
			<point x="1116.7850341797" y="103.5642700195"/>
			<point x="1391.6804199219" y="424.3881835938"/>
			<point x="1391.6804199219" y="749" type="qcurve" smooth="yes"/>
			<point x="1391.6804199219" y="1044.408203125"/>
			<point x="1107.5736083984" y="1380.9196166992"/>
			<point x="841.5772705078" y="1380.9196166992" type="qcurve" smooth="yes"/>
			<point x="569.5806884766" y="1380.9196166992"/>
			<point x="270.7001953125" y="1061.0100097656"/>
		</contour>
	</outline>
	<anchor name="bottom" x="832" y="0"/>
	<anchor name="center" x="832" y="750"/>
	<anchor name="ogonek" x="1064" y="0"/>
	<anchor name="top" x="832" y="1500"/>
	<anchor name="topright" x="1028" y="1500"/>
	<anchor name="tonos" x="140" y="1500"/>
	<anchor name="_yu_dash" x="169" y="755"/>
</glyph>
<glyph name="P" format="2">
	<unicode hex="0050"/>
	<advance width="1260"/>
	<outline>
		<contour>
			<point x="93.99609375" y="0" type="line"/>
			<point x="93.99609375" y="100.001953125" type="line"/>
			<point x="289.9985351562" y="134.001953125" type="line"/>
			<point x="294.1148681641" y="762" type="line"/>
			<point x="290.9985351562" y="1359.7177734375" type="line"/>
			<point x="81.99609375" y="1393.7177734375" type="line"/>
			<point x="81.99609375" y="1500" type="line"/>
			<point x="794.6279296875" y="1500" type="line" smooth="yes"/>
			<point x="1016.928527832" y="1500"/>
			<point x="1273.8168334961" y="1278"/>
			<point x="1273.8168334961" y="1046" type="qcurve" smooth="yes"/>
			<point x="1273.8168334961" y="845"/>
			<point x="1003.6458740234" y="547.2420043945"/>
			<point x="777.9450683594" y="547.2420043945" type="qcurve" smooth="yes"/>
			<point x="670.2855834961" y="547.2420043945"/>
			<point x="434.2274169922" y="566.6774902344"/>
			<point x="389.3247680664" y="574.8549194336" type="qcurve"/>
			<point x="391.4896850586" y="692.3265380859" type="line"/>
			<point x="466.6807250977" y="674.8708496094"/>
			<point x="577.3779296875" y="671.0805053711"/>
			<point x="734.0994262695" y="671.0805053711" type="qcurve" smooth="yes"/>
			<point x="848.0131835938" y="671.0805053711"/>
			<point x="1091.4631958008" y="864.4463500977"/>
			<point x="1091.4631958008" y="1049" type="qcurve" smooth="yes"/>
			<point x="1091.4631958008" y="1240.1715087891"/>
			<point x="863.799987793" y="1376.3389282227"/>
			<point x="716.1356811523" y="1376.3389282227" type="qcurve" smooth="yes"/>
			<point x="493.1195068359" y="1376.3389282227" type="line"/>
			<point x="466.1195068359" y="1349.3389282227" type="line"/>
			<point x="460.4450073242" y="766" type="line"/>
			<point x="467.561340332" y="129.001953125" type="line"/>
			<point x="698.5637817383" y="100.001953125" type="line"/>
			<point x="698.5637817383" y="0" type="line"/>
		</contour>
	</outline>
	<anchor name="bottom" x="634" y="0"/>
	<anchor name="top" x="634" y="1500"/>
</glyph>
<glyph name="Q" format="2">
	<unicode hex="0051"/>
	<advance width="1669"/>
	<outline>
		<contour>
			<point x="80.9975585938" y="728" type="qcurve" smooth="yes"/>
			<point x="80.9975585938" y="1068"/>
			<point x="508.1672973633" y="1520"/>
			<point x="829.2129516602" y="1520" type="qcurve" smooth="yes"/>
			<point x="1161.2733764648" y="1520"/>
			<point x="1588.4993896484" y="1097"/>
			<point x="1588.4993896484" y="750" type="qcurve" smooth="yes"/>
			<point x="1588.4993896484" y="442"/>
			<point x="1148.8204345703" y="-42"/>
			<point x="832.8803100586" y="-42" type="qcurve" smooth="yes"/>
			<point x="527.1497192383" y="-42"/>
			<point x="80.9975585938" y="373"/>
		</contour>
		<contour>
			<point x="271.2583618164" y="778" type="qcurve" smooth="yes"/>
			<point x="269.2583618164" y="453.7793579102"/>
			<point x="566.7844238281" y="104.0481567383"/>
			<point x="827.5313110352" y="103.4836425781" type="qcurve" smooth="yes"/>
			<point x="1102.2779541016" y="102.919128418"/>
			<point x="1394.2385864258" y="406.696105957"/>
			<point x="1392.2385864258" y="747" type="qcurve" smooth="yes"/>
			<point x="1390.2385864258" y="1042.2206420898"/>
			<point x="1095.6846313477" y="1380.9196166992"/>
			<point x="832.7711181641" y="1380.9196166992" type="qcurve" smooth="yes"/>
			<point x="557.1077880859" y="1380.9196166992"/>
			<point x="273.2583618164" y="1069.7321777344"/>
		</contour>
		<contour>
			<point x="573" y="-39" type="qcurve"/>
			<point x="1290" y="-274" type="line"/>
			<point x="1350" y="-274"/>
			<point x="1442" y="-186"/>
			<point x="1475" y="-132" type="qcurve"/>
			<point x="1565" y="-184" type="line"/>
			<point x="1515" y="-288"/>
			<point x="1371" y="-429"/>
			<point x="1239" y="-429" type="qcurve"/>
			<point x="540" y="-194" type="line"/>
			<point x="479" y="-194"/>
			<point x="363" y="-236"/>
			<point x="306" y="-288" type="qcurve"/>
			<point x="238" y="-224" type="line"/>
			<point x="299" y="-132"/>
			<point x="476" y="-39"/>
		</contour>
		<contour>
			<point x="497.6060791016" y="-107.5912475586" type="line"/>
			<point x="687.3361206055" y="237.725769043" type="line"/>
			<point x="797.9165649414" y="165.274230957" type="line"/>
			<point x="640.0574951172" y="-137.6557006836" type="line"/>
		</contour>
	</outline>
	<anchor name="bottom" x="832" y="0"/>
	<anchor name="top" x="823" y="1502"/>
</glyph>
<glyph name="R" format="2">
	<unicode hex="0052"/>
	<advance width="1375"/>
	<outline>
		<contour>
			<point x="63.99609375" y="0" type="line"/>
			<point x="63.99609375" y="100.001953125" type="line"/>
			<point x="289.9985351562" y="135.001953125" type="line"/>
			<point x="292.9985351562" y="782" type="line"/>
			<point x="290.9985351562" y="1359.7177734375" type="line"/>
			<point x="81.99609375" y="1393.7177734375" type="line"/>
			<point x="81.99609375" y="1500" type="line"/>
			<point x="772.4938964844" y="1500" type="line" smooth="yes"/>
			<point x="993.2692871094" y="1500"/>
			<point x="1196.0094604492" y="1299"/>
			<point x="1196.0094604492" y="1134" type="qcurve" smooth="yes"/>
			<point x="1196.0094604492" y="946"/>
			<point x="949.2738037109" y="706.7097167969"/>
			<point x="773.307800293" y="706.7097167969" type="qcurve" smooth="yes"/>
			<point x="726.341796875" y="706.7097167969"/>
			<point x="434.4005126953" y="714.9677734375"/>
			<point x="379.8845214844" y="719.2258300781" type="qcurve"/>
			<point x="379.8845214844" y="821.9514770508" type="line"/>
			<point x="698.0142822266" y="818.9514770508" type="line" smooth="yes"/>
			<point x="827.5131835938" y="817.9514770508"/>
			<point x="1004.3996582031" y="974.3029174805"/>
			<point x="1004.3996582031" y="1129" type="qcurve" smooth="yes"/>
			<point x="1004.3996582031" y="1275.7803344727"/>
			<point x="846.6896972656" y="1377.3389282227"/>
			<point x="743.4409790039" y="1377.3389282227" type="qcurve" smooth="yes"/>
			<point x="493.3286743164" y="1377.3389282227" type="line"/>
			<point x="462.3286743164" y="1345.3389282227" type="line"/>
			<point x="459.3286743164" y="736" type="line"/>
			<point x="461.3286743164" y="135.001953125" type="line"/>
			<point x="696.3311157227" y="100.001953125" type="line"/>
			<point x="696.3311157227" y="0" type="line"/>
		</contour>
		<contour>
			<point x="614" y="788" type="line"/>
			<point x="802" y="805" type="line"/>
			<point x="1249.024230957" y="242" type="line" smooth="yes"/>
			<point x="1224" y="173"/>
			<point x="1418.5074462891" y="99.5219726562"/>
			<point x="1488.0466918945" y="100.001953125" type="qcurve"/>
			<point x="1488.0466918945" y="0" type="line"/>
			<point x="1232.7377929688" y="0" type="line"/>
			<point x="1209.7377929688" y="13" type="line"/>
		</contour>
	</outline>
	<anchor name="bottom" x="803" y="0"/>
	<anchor name="top" x="630" y="1500"/>
</glyph>
<glyph name="S" format="2">
	<unicode hex="0053"/>
	<advance width="1111"/>
	<outline>
		<contour>
			<point x="80.4991455078" y="0" type="line"/>
			<point x="80.4991455078" y="462.2753295898" type="line"/>
			<point x="193.7618408203" y="462.2753295898" type="line"/>
			<point x="215.0047607422" y="332" type="line" smooth="yes"/>
			<point x="225.1499633789" y="255.3546142578"/>
			<point x="448.9362182617" y="99.0481567383"/>
			<point x="625.3060913086" y="99.0481567383" type="qcurve" smooth="yes"/>
			<point x="751.4700317383" y="99.0481567383"/>
			<point x="900.4044189453" y="217.770324707"/>
			<point x="900.3842163086" y="362.4002075195" type="qcurve" smooth="yes"/>
			<point x="900.3640136719" y="562.3010253906"/>
			<point x="737.1324462891" y="663.0604858398"/>
			<point x="567.4774169922" y="721.2648925781" type="qcurve" smooth="yes"/>
			<point x="347.9481811523" y="778.2431030273"/>
			<point x="153.4191894531" y="977.5510864258"/>
			<point x="153.4191894531" y="1147.2032470703" type="qcurve" smooth="yes"/>
			<point x="153.4191894531" y="1301.6685791016"/>
			<point x="334.7875976562" y="1519"/>
			<point x="512.8239135742" y="1519" type="qcurve" smooth="yes"/>
			<point x="652.3037719727" y="1519"/>
			<point x="816.7090454102" y="1445.1065063477"/>
			<point x="853.8919677734" y="1393.064453125" type="qcurve"/>
			<point x="855.9047851562" y="1487" type="line"/>
			<point x="969.2309570312" y="1487" type="line"/>
			<point x="969.2309570312" y="1082.1538085938" type="line"/>
			<point x="855.8531494141" y="1082.1538085938" type="line"/>
			<point x="831.5616455078" y="1207" type="line" smooth="yes"/>
			<point x="809.5005493164" y="1310.4213256836"/>
			<point x="602.3262329102" y="1385.8712158203"/>
			<point x="529.116027832" y="1385.8712158203" type="qcurve" smooth="yes"/>
			<point x="393.5352783203" y="1385.8712158203"/>
			<point x="339.8739624023" y="1292.858581543"/>
			<point x="340.8537597656" y="1174.0852661133" type="qcurve" smooth="yes"/>
			<point x="341.8335571289" y="1058.8953857422"/>
			<point x="415.8222045898" y="929.7846679688"/>
			<point x="697.8196411133" y="860.2453613281" type="qcurve" smooth="yes"/>
			<point x="816.4813232422" y="806.4396972656"/>
			<point x="1092.3706054688" y="623.7391967773"/>
			<point x="1092.3706054688" y="430.0294189453" type="qcurve" smooth="yes"/>
			<point x="1092.3706054688" y="232.6463012695"/>
			<point x="859.8884887695" y="-34"/>
			<point x="625.4595336914" y="-34" type="qcurve" smooth="yes"/>
			<point x="503.2646484375" y="-34"/>
			<point x="249.2380981445" y="73"/>
			<point x="231.4602050781" y="138" type="qcurve"/>
			<point x="185.9990844727" y="0" type="line"/>
		</contour>
	</outline>
	<anchor name="bottom" x="599" y="0"/>
	<anchor name="top" x="514" y="1500"/>
</glyph>
<glyph name="T" format="2">
	<unicode hex="0054"/>
	<advance width="1270"/>
	<outline>
		<contour>
			<point x="19.9992675781" y="1050.3307495117" type="line"/>
			<point x="19.9992675781" y="1500" type="line"/>
			<point x="1250.4038696289" y="1500" type="line"/>
			<point x="1250.4038696289" y="1050.3307495117" type="line"/>
			<point x="1140.4071655273" y="1050.3307495117" type="line"/>
			<point x="1105.4088745117" y="1380.3389282227" type="line"/>
			<point x="750.469909668" y="1380.3389282227" type="line"/>
			<point x="724.469909668" y="1368.3389282227" type="line"/>
			<point x="721.3535766602" y="754" type="line"/>
			<point x="724.469909668" y="135.001953125" type="line"/>
			<point x="958.4723510742" y="100.001953125" type="line"/>
			<point x="958.4723510742" y="0" type="line"/>
			<point x="309.9046630859" y="0" type="line"/>
			<point x="309.9046630859" y="100.001953125" type="line"/>
			<point x="547.9071044922" y="135.001953125" type="line"/>
			<point x="551.0234375" y="754" type="line"/>
			<point x="547.9071044922" y="1366.3389282227" type="line"/>
			<point x="516.9071044922" y="1380.3389282227" type="line"/>
			<point x="156.9942626953" y="1380.3389282227" type="line"/>
			<point x="130.9959716797" y="1050.3307495117" type="line"/>
		</contour>
	</outline>
	<anchor name="bottom" x="644" y="0"/>
	<anchor name="center" x="644" y="750"/>
	<anchor name="top" x="644" y="1500"/>
	<anchor name="cy_descender" x="951" y="100"/>
</glyph>
<glyph name="U" format="2">
	<unicode hex="0055"/>
	<advance width="1616"/>
	<outline>
		<contour>
			<point x="50.4962158203" y="1393.7177734375" type="line"/>
			<point x="50.4962158203" y="1500" type="line"/>
			<point x="683.7149047852" y="1500" type="line"/>
			<point x="683.7149047852" y="1393.7177734375" type="line"/>
			<point x="465.7124633789" y="1359.7177734375" type="line"/>
			<point x="463.7124633789" y="810.2121582031" type="line"/>
			<point x="467.6196289062" y="477.660949707" type="line" smooth="yes"/>
			<point x="467.8927001953" y="192.660949707"/>
			<point x="747.8728027344" y="102.1771850586"/>
			<point x="837.4506225586" y="102.1771850586" type="qcurve" smooth="yes"/>
			<point x="928.8618164062" y="102.1771850586"/>
			<point x="1276.6145019531" y="154.8383789062"/>
			<point x="1269.7016601562" y="486.8383789062" type="qcurve" smooth="yes"/>
			<point x="1266.87109375" y="805.2121582031" type="line"/>
			<point x="1265.7016601562" y="1359.7177734375" type="line"/>
			<point x="1046.69921875" y="1394.7177734375" type="line"/>
			<point x="1046.69921875" y="1500" type="line"/>
			<point x="1612.3973999023" y="1500" type="line"/>
			<point x="1612.3973999023" y="1394.7177734375" type="line"/>
			<point x="1412.3949584961" y="1359.7177734375" type="line"/>
			<point x="1408.7077636719" y="805.2121582031" type="line"/>
			<point x="1414.9594726562" y="444.020324707" type="line" smooth="yes"/>
			<point x="1419.2919921875" y="191.0606689453"/>
			<point x="1056.4893798828" y="-31"/>
			<point x="848.3348999023" y="-31" type="qcurve" smooth="yes"/>
			<point x="609.3624267578" y="-31"/>
			<point x="289.9000854492" y="182.1414794922"/>
			<point x="288.4986572266" y="429.9799194336" type="qcurve" smooth="yes"/>
			<point x="288.4986572266" y="810.2121582031" type="line"/>
			<point x="286.4986572266" y="1359.7177734375" type="line"/>
		</contour>
	</outline>
	<anchor name="bottom" x="832" y="0"/>
	<anchor name="ogonek" x="1042" y="0"/>
	<anchor name="top" x="832" y="1500"/>
	<anchor name="topright" x="1590" y="1500"/>
</glyph>
<glyph name="V" format="2">
	<unicode hex="0056"/>
	<advance width="1475"/>
	<outline>
		<contour>
			<point x="-45.0014648438" y="1391.7177734375" type="line"/>
			<point x="-45.0014648438" y="1500" type="line"/>
			<point x="506.9025878906" y="1500" type="line"/>
			<point x="506.9025878906" y="1391.7177734375" type="line"/>
			<point x="316.8989257812" y="1364.7177734375" type="line"/>
			<point x="560.3903198242" y="771.813659668" type="line"/>
			<point x="709" y="366" type="line"/>
			<point x="746" y="252" type="line"/>
			<point x="756" y="252" type="line"/>
			<point x="793" y="366" type="line"/>
			<point x="900.9987182617" y="734.8634643555" type="line"/>
			<point x="1168.600769043" y="1353.2524414062" type="line"/>
			<point x="994.5971069336" y="1387.2524414062" type="line"/>
			<point x="992.5971069336" y="1495.5346679688" type="line"/>
			<point x="1483.7180175781" y="1500" type="line"/>
			<point x="1484.7180175781" y="1391.7177734375" type="line"/>
			<point x="1307.7145996094" y="1362.7177734375" type="line"/>
			<point x="1020.4473876953" y="681.6842041016" type="line"/>
			<point x="755.0267944336" y="-7" type="line"/>
			<point x="660.8131713867" y="-7" type="line"/>
			<point x="394.5959472656" y="736.9337768555" type="line"/>
			<point x="137.001953125" y="1362.7177734375" type="line"/>
		</contour>
	</outline>
	<anchor name="bottom" x="723" y="0"/>
	<anchor name="top" x="733" y="1500"/>
</glyph>
<glyph name="W" format="2">
	<unicode hex="0057"/>
	<advance width="2176"/>
	<outline>
		<contour>
			<point x="650.4161987305" y="-5" type="line"/>
			<point x="351.3661499023" y="810.1751098633" type="line"/>
			<point x="147.001953125" y="1362.7177734375" type="line"/>
			<point x="-69.0004882812" y="1393.7177734375" type="line"/>
			<point x="-69.0004882812" y="1500" type="line"/>
			<point x="603.4978637695" y="1500" type="line"/>
			<point x="603.4978637695" y="1393.7177734375" type="line"/>
			<point x="338.4954223633" y="1365.7177734375" type="line"/>
			<point x="509.5572509766" y="858.291015625" type="line"/>
			<point x="675" y="370" type="line"/>
			<point x="710" y="256" type="line"/>
			<point x="720" y="256" type="line"/>
			<point x="759" y="370" type="line"/>
			<point x="868" y="674" type="line"/>
			<point x="996" y="1038" type="line"/>
			<point x="893.9735107422" y="1363.8779296875" type="line"/>
			<point x="675.9710693359" y="1396.8779296875" type="line"/>
			<point x="675.9710693359" y="1500" type="line"/>
			<point x="1329.2560424805" y="1500" type="line"/>
			<point x="1329.2560424805" y="1396.8779296875" type="line"/>
			<point x="1095.2536010742" y="1367.8779296875" type="line"/>
			<point x="1279.9867553711" y="805.6209106445" type="line"/>
			<point x="1397" y="370" type="line"/>
			<point x="1430" y="256" type="line"/>
			<point x="1440" y="256" type="line"/>
			<point x="1476" y="370" type="line"/>
			<point x="1629" y="803" type="line"/>
			<point x="1882.4957885742" y="1360.7177734375" type="line"/>
			<point x="1679.493347168" y="1393.7177734375" type="line"/>
			<point x="1679.493347168" y="1500" type="line"/>
			<point x="2246.8930053711" y="1500" type="line"/>
			<point x="2246.8930053711" y="1393.7177734375" type="line"/>
			<point x="2047.8905639648" y="1364.7177734375" type="line"/>
			<point x="1747" y="760" type="line"/>
			<point x="1510.6746826172" y="-5" type="line"/>
			<point x="1368.2744750977" y="-5" type="line"/>
			<point x="1096" y="750" type="line"/>
			<point x="1060" y="866" type="line"/>
			<point x="1050" y="866" type="line"/>
			<point x="1014" y="750" type="line"/>
			<point x="790.7873535156" y="-5" type="line"/>
		</contour>
	</outline>
	<anchor name="bottom" x="1051" y="0"/>
	<anchor name="top" x="1051" y="1500"/>
</glyph>
<glyph name="X" format="2">
	<unicode hex="0058"/>
	<advance width="1304"/>
	<outline>
		<contour>
			<point x="-38.7044677734" y="0" type="line"/>
			<point x="-38.7044677734" y="100.001953125" type="line"/>
			<point x="166.2994384766" y="136.001953125" type="line"/>
			<point x="575" y="786" type="line"/>
			<point x="215.6671142578" y="1359.7177734375" type="line"/>
			<point x="20.6634521484" y="1393.7177734375" type="line"/>
			<point x="20.6634521484" y="1500" type="line"/>
			<point x="644.8402099609" y="1500" type="line"/>
			<point x="644.8402099609" y="1393.7177734375" type="line"/>
			<point x="428.8350830078" y="1359.7177734375" type="line"/>
			<point x="601" y="1043" type="line"/>
			<point x="673" y="929" type="line"/>
			<point x="683" y="929" type="line"/>
			<point x="751" y="1043" type="line"/>
			<point x="945.5365600586" y="1360.7177734375" type="line"/>
			<point x="758.5316772461" y="1393.7177734375" type="line"/>
			<point x="758.5316772461" y="1500" type="line"/>
			<point x="1312.5724487305" y="1500" type="line"/>
			<point x="1312.5724487305" y="1393.7177734375" type="line"/>
			<point x="1115.5685424805" y="1359.7177734375" type="line"/>
			<point x="753" y="818" type="line"/>
			<point x="1243.7005004883" y="135.001953125" type="line"/>
			<point x="1457.7041625977" y="100.001953125" type="line"/>
			<point x="1457.7041625977" y="0" type="line"/>
			<point x="798.4110717773" y="0" type="line"/>
			<point x="798.4110717773" y="100.001953125" type="line"/>
			<point x="1028.4161987305" y="135.001953125" type="line"/>
			<point x="727" y="562" type="line"/>
			<point x="655" y="676" type="line"/>
			<point x="645" y="676" type="line"/>
			<point x="577" y="562" type="line"/>
			<point x="335.3314208984" y="134.001953125" type="line"/>
			<point x="522.3363037109" y="100.001953125" type="line"/>
			<point x="522.3363037109" y="0" type="line"/>
		</contour>
	</outline>
	<anchor name="bottom" x="661" y="0"/>
	<anchor name="top" x="673" y="1500"/>
	<anchor name="cy_descender" x="1386" y="100"/>
	<anchor name="center" x="663" y="811"/>
</glyph>
<glyph name="Y" format="2">
	<unicode hex="0059"/>
	<advance width="1258"/>
	<outline>
		<contour>
			<point x="329.0391235352" y="0" type="line"/>
			<point x="329.0391235352" y="100.001953125" type="line"/>
			<point x="541.0415649414" y="135.001953125" type="line"/>
			<point x="542.1578979492" y="635.2235107422" type="line"/>
			<point x="374.9425048828" y="973.0485229492" type="line"/>
			<point x="136.001953125" y="1359.7177734375" type="line"/>
			<point x="-84.0004882812" y="1393.7177734375" type="line"/>
			<point x="-84.0004882812" y="1500" type="line"/>
			<point x="529.6376342773" y="1500" type="line"/>
			<point x="529.6376342773" y="1393.7177734375" type="line"/>
			<point x="320.6351928711" y="1365.7177734375" type="line"/>
			<point x="525.7083740234" y="1036.7938232422" type="line"/>
			<point x="653.9439697266" y="790.2911987305" type="line"/>
			<point x="657.9439697266" y="790.2911987305" type="line"/>
			<point x="802.8575439453" y="1084.6647338867" type="line"/>
			<point x="965.1237792969" y="1359.7177734375" type="line"/>
			<point x="758.1213378906" y="1393.7177734375" type="line"/>
			<point x="758.1213378906" y="1500" type="line"/>
			<point x="1297.7844238281" y="1500" type="line"/>
			<point x="1297.7844238281" y="1393.7177734375" type="line"/>
			<point x="1102.7819824219" y="1359.7177734375" type="line"/>
			<point x="910.885925293" y="1020.6442871094" type="line"/>
			<point x="716.4943847656" y="665.8736572266" type="line"/>
			<point x="717.0462036133" y="135.001953125" type="line"/>
			<point x="925.0486450195" y="100.001953125" type="line"/>
			<point x="925.0486450195" y="0" type="line"/>
		</contour>
	</outline>
	<anchor name="bottom" x="636" y="0"/>
	<anchor name="top" x="640" y="1500"/>
	<anchor name="tonos" x="-100" y="1500"/>
	<anchor name="center" x="636" y="582"/>
</glyph>
<glyph name="Z" format="2">
	<unicode hex="005A"/>
	<advance width="1116"/>
	<outline>
		<contour>
			<point x="25.335144043" y="0" type="line"/>
			<point x="-3.6486816406" y="86.5159912109" type="line"/>
			<point x="914.3225708008" y="1370.3389282227" type="line"/>
			<point x="908.3225708008" y="1377.3389282227" type="line"/>
			<point x="232.1954345703" y="1377.3389282227" type="line"/>
			<point x="168.5323486328" y="1116.0646972656" type="line"/>
			<point x="66.955078125" y="1116.0646972656" type="line"/>
			<point x="66.955078125" y="1500" type="line"/>
			<point x="1067.0667114258" y="1500" type="line"/>
			<point x="1067.0667114258" y="1398.532409668" type="line"/>
			<point x="182.3455200195" y="132.0159301758" type="line"/>
			<point x="187.3455200195" y="117.0159301758" type="line"/>
			<point x="963.6666259766" y="117.0159301758" type="line"/>
			<point x="1051.2188110352" y="394.2794189453" type="line"/>
			<point x="1152.6446533203" y="394.2794189453" type="line"/>
			<point x="1105.2924194336" y="0" type="line"/>
		</contour>
	</outline>
	<anchor name="bottom" x="583" y="0"/>
	<anchor name="top" x="583" y="1500"/>
	<anchor name="_liga" x="0" y="0"/>
</glyph>
<glyph name="b" format="2">
	<unicode hex="0062"/>
	<advance width="1107"/>
	<outline>
		<contour>
			<point x="124.8126220703" y="0" type="line"/>
			<point x="134.3804321289" y="427" type="line"/>
			<point x="123.8126220703" y="1395.5721435547" type="line"/>
			<point x="-67.7894287109" y="1416.5721435547" type="line"/>
			<point x="-67.7894287109" y="1509.8732910156" type="line"/>
			<point x="246.2681274414" y="1533.9965820312" type="line"/>
			<point x="265.2681274414" y="1528.9965820312" type="line"/>
			<point x="283.3421020508" y="1505.9965820312" type="line"/>
			<point x="284.3297729492" y="823.7829589844" type="line"/>
			<point x="329.1126708984" y="897.9293212891"/>
			<point x="506.2662963867" y="1022.1022949219"/>
			<point x="600.234375" y="1022.1022949219" type="qcurve" smooth="yes"/>
			<point x="825.2211303711" y="1022.1022949219"/>
			<point x="1043.0822753906" y="754.5567626953"/>
			<point x="1043.0822753906" y="527.1043701172" type="qcurve" smooth="yes"/>
			<point x="1043.0822753906" y="289.6120605469"/>
			<point x="785.6700439453" y="-26"/>
			<point x="613.7446289062" y="-26" type="qcurve" smooth="yes"/>
			<point x="497.3728027344" y="-26"/>
			<point x="332.1187744141" y="45.0084228516"/>
			<point x="290.2934570312" y="82.0880126953" type="qcurve"/>
			<point x="239.9982910156" y="0" type="line"/>
		</contour>
		<contour>
			<point x="284.2681274414" y="359.9180908203" type="line"/>
			<point x="288.2681274414" y="209.1688232422" type="line"/>
			<point x="295.9752807617" y="169.2718505859"/>
			<point x="469.6192016602" y="80.3345947266"/>
			<point x="570.7731933594" y="80.3345947266" type="qcurve" smooth="yes"/>
			<point x="686.7995605469" y="80.3345947266"/>
			<point x="866.4911499023" y="331.2666015625"/>
			<point x="866.4911499023" y="533.0511474609" type="qcurve" smooth="yes"/>
			<point x="866.4911499023" y="707.8160400391"/>
			<point x="711.2756347656" y="907.4343261719"/>
			<point x="574.2492675781" y="907.4343261719" type="qcurve" smooth="yes"/>
			<point x="499.6973876953" y="907.4343261719"/>
			<point x="327.5405273438" y="793.9279785156"/>
			<point x="282.2681274414" y="702.9058837891" type="qcurve"/>
		</contour>
	</outline>
	<anchor name="bottom" x="571" y="0"/>
	<anchor name="top" x="571" y="1533"/>
</glyph>
<glyph name="d" format="2">
	<unicode hex="0064"/>
	<advance width="1152"/>
	<outline>
		<contour>
			<point x="64.6789550781" y="484.4547729492" type="qcurve" smooth="yes"/>
			<point x="64.6789550781" y="717.0455932617"/>
			<point x="312.3212280273" y="1029.1022949219"/>
			<point x="498.2056274414" y="1029.1022949219" type="qcurve" smooth="yes"/>
			<point x="614.1972045898" y="1029.1022949219"/>
			<point x="823.6234741211" y="951.8978271484"/>
			<point x="852.9478759766" y="917.9293212891" type="qcurve"/>
			<point x="848.4183959961" y="1405.6954345703" type="line"/>
			<point x="689.4140014648" y="1426.6954345703" type="line"/>
			<point x="689.4140014648" y="1519.9965820312" type="line"/>
			<point x="988.4278564453" y="1533.9965820312" type="line"/>
			<point x="1000.239074707" y="1528.9965820312" type="line"/>
			<point x="1024.3993530273" y="1505.9965820312" type="line"/>
			<point x="1016.8685302734" y="537.2222900391" type="line"/>
			<point x="1029.3146362305" y="108.0009765625" type="line"/>
			<point x="1175.317565918" y="80.0009765625" type="line"/>
			<point x="1175.317565918" y="0" type="line"/>
			<point x="921.8212890625" y="0" type="line"/>
			<point x="901.7293701172" y="14" type="line"/>
			<point x="870.2612915039" y="136.3193359375" type="line"/>
			<point x="833.6937866211" y="75.8662109375"/>
			<point x="597.9978027344" y="-21"/>
			<point x="484.2626342773" y="-21" type="qcurve" smooth="yes"/>
			<point x="334.756652832" y="-21"/>
			<point x="64.6789550781" y="260.141418457"/>
		</contour>
		<contour>
			<point x="236.2700805664" y="493.0511474609" type="qcurve" smooth="yes"/>
			<point x="236.2700805664" y="289.4822998047"/>
			<point x="425.7269287109" y="87.4459228516"/>
			<point x="539.1478271484" y="87.0014648438" type="qcurve" smooth="yes"/>
			<point x="618.151184082" y="86.5570068359"/>
			<point x="834.1876220703" y="185.0765380859"/>
			<point x="864.3036499023" y="258.9741210938" type="qcurve"/>
			<point x="867.340637207" y="536.0777587891" type="line"/>
			<point x="863.340637207" y="777.1810302734" type="line"/>
			<point x="833.7827758789" y="837.7456054688"/>
			<point x="649.7052612305" y="918.1009521484"/>
			<point x="559.3021240234" y="918.1009521484" type="qcurve" smooth="yes"/>
			<point x="418.6702880859" y="918.1009521484"/>
			<point x="236.2700805664" y="688.1102294922"/>
		</contour>
	</outline>
	<anchor name="bottom" x="604" y="0"/>
	<anchor name="center" x="876" y="1202"/>
	<anchor name="top" x="604" y="1534"/>
	<anchor name="topright" x="961" y="1000"/>
	<anchor name="liga" x="1207" y="0"/>
</glyph>
<glyph name="e" format="2">
	<unicode hex="0065"/>
	<advance width="1042"/>
	<outline>
		<contour>
			<point x="61.4968261719" y="490.8081054688" type="qcurve" smooth="yes"/>
			<point x="61.4968261719" y="749.3305664062"/>
			<point x="364.6525268555" y="1028.9692382812"/>
			<point x="585.5596313477" y="1028.9692382812" type="qcurve" smooth="yes"/>
			<point x="789.9098510742" y="1028.9692382812"/>
			<point x="1028.1997680664" y="788.5966796875"/>
			<point x="1048.9576416016" y="597.7978515625" type="qcurve"/>
			<point x="1048.9576416016" y="533.01953125" type="line"/>
			<point x="159.6071166992" y="533.01953125" type="line"/>
			<point x="159.5701293945" y="631.5760498047" type="line"/>
			<point x="871.9466552734" y="631.5760498047" type="line"/>
			<point x="855.8372802734" y="757.3153076172"/>
			<point x="696.0557861328" y="917.7456054688"/>
			<point x="563.4522705078" y="917.7456054688" type="qcurve" smooth="yes"/>
			<point x="431.0313720703" y="917.7456054688"/>
			<point x="224.125" y="709.4805908203"/>
			<point x="225.5694580078" y="521.9313964844" type="qcurve" smooth="yes"/>
			<point x="227.0139160156" y="301.0488891602"/>
			<point x="486.7161254883" y="77.0010986328"/>
			<point x="654.1370239258" y="77.0010986328" type="qcurve" smooth="yes"/>
			<point x="757.0244140625" y="77.0010986328"/>
			<point x="888.1724853516" y="163.6672363281"/>
			<point x="913.232421875" y="230.7779541016" type="qcurve"/>
			<point x="977.3441162109" y="142.1105957031" type="line"/>
			<point x="917.4319458008" y="72.1108398438"/>
			<point x="787.3226318359" y="-30"/>
			<point x="615.6796875" y="-30" type="qcurve" smooth="yes"/>
			<point x="367.1887207031" y="-30"/>
			<point x="61.4968261719" y="247.43359375"/>
		</contour>
	</outline>
	<anchor name="bottom" x="578" y="0"/>
	<anchor name="ogonek" x="744" y="0"/>
	<anchor name="top" x="539" y="1000"/>
</glyph>
<glyph name="g" format="2">
	<unicode hex="0067"/>
	<advance width="1132"/>
	<outline>
		<contour>
			<point x="105.3638916016" y="-235.2380981445" type="qcurve" smooth="yes"/>
			<point x="105.3638916016" y="-124.7253417969"/>
			<point x="126" y="-51"/>
			<point x="233" y="2" type="qcurve"/>
			<point x="340" y="-21" type="line"/>
			<point x="240" y="-84"/>
			<point x="258.5974731445" y="-151.2578125"/>
			<point x="258.5974731445" y="-223.787109375" type="qcurve" smooth="yes"/>
			<point x="258.5974731445" y="-311.7775878906"/>
			<point x="465.1546020508" y="-389.7766113281"/>
			<point x="631.6622924805" y="-389.7766113281" type="qcurve" smooth="yes"/>
			<point x="791.024230957" y="-389.7766113281"/>
			<point x="967.819519043" y="-305.8669433594"/>
			<point x="967.819519043" y="-211.8669433594" type="qcurve" smooth="yes"/>
			<point x="967.819519043" y="-117.7338867188"/>
			<point x="838.9130859375" y="-76.100402832"/>
			<point x="571.9874267578" y="-58.0732421875" type="qcurve" smooth="yes"/>
			<point x="335.2868652344" y="-40.2076416016"/>
			<point x="142.0200805664" y="36.7919921875"/>
			<point x="142.0200805664" y="139.6286010742" type="qcurve" smooth="yes"/>
			<point x="142.0200805664" y="222.794128418"/>
			<point x="299.8491821289" y="317.7065429688"/>
			<point x="360.5284423828" y="331.978515625" type="qcurve"/>
			<point x="419.5075073242" y="280.5189208984" type="line"/>
			<point x="354.1254272461" y="265.4951171875"/>
			<point x="279.0440673828" y="208.6842651367"/>
			<point x="279.0440673828" y="162.8618164062" type="qcurve" smooth="yes"/>
			<point x="279.0440673828" y="126.4348754883"/>
			<point x="409.3822631836" y="99.2008666992"/>
			<point x="650.5981445312" y="84.3206176758" type="qcurve" smooth="yes"/>
			<point x="888.8570556641" y="67.2593994141"/>
			<point x="1114.3126831055" y="-23.8389892578"/>
			<point x="1114.3126831055" y="-166.279296875" type="qcurve" smooth="yes"/>
			<point x="1114.3126831055" y="-303.6696777344"/>
			<point x="851.9463500977" y="-490"/>
			<point x="594.0767822266" y="-490" type="qcurve" smooth="yes"/>
			<point x="404.8985595703" y="-490"/>
			<point x="105.3638916016" y="-361.5184936523"/>
		</contour>
		<contour>
			<point x="167.9992675781" y="638.80859375" type="qcurve" smooth="yes"/>
			<point x="167.9992675781" y="802.3452758789"/>
			<point x="415.3480224609" y="1027.9692382812"/>
			<point x="595.6842651367" y="1027.9692382812" type="qcurve" smooth="yes"/>
			<point x="767.6113891602" y="1027.9692382812"/>
			<point x="1007.6687011719" y="821.3452758789"/>
			<point x="1007.6687011719" y="651.8712158203" type="qcurve" smooth="yes"/>
			<point x="1008.6687011719" y="498.457824707"/>
			<point x="758.7604370117" y="211.0666503906"/>
			<point x="603.6145629883" y="211.0666503906" type="qcurve" smooth="yes"/>
			<point x="419.3193359375" y="211.0666503906"/>
			<point x="167.9992675781" y="475.9639892578"/>
		</contour>
		<contour>
			<point x="341.5534057617" y="636.9293212891" type="qcurve" smooth="yes"/>
			<point x="341.5534057617" y="477.3016967773"/>
			<point x="455.2350463867" y="316.2901611328"/>
			<point x="597.6569213867" y="316.2901611328" type="qcurve" smooth="yes"/>
			<point x="719.0787963867" y="316.2901611328"/>
			<point x="834.1022338867" y="491.3016967773"/>
			<point x="834.1022338867" y="646.9293212891" type="qcurve" smooth="yes"/>
			<point x="834.1022338867" y="789.5569458008"/>
			<point x="730.1334838867" y="910.4122314453"/>
			<point x="597.7116088867" y="910.4122314453" type="qcurve" smooth="yes"/>
			<point x="457.2897338867" y="910.4122314453"/>
			<point x="341.5534057617" y="777.5569458008"/>
		</contour>
		<contour>
			<point x="540" y="925" type="line"/>
			<point x="540" y="1000" type="line"/>
			<point x="1113.9401855469" y="992.9692382812" type="line"/>
			<point x="1113.9401855469" y="885.8570556641" type="line"/>
		</contour>
	</outline>
	<anchor name="bottom" x="524" y="-416"/>
	<anchor name="top" x="484" y="1000"/>
</glyph>
<glyph name="h" format="2">
	<unicode hex="0068"/>
	<advance width="1160"/>
	<outline>
		<contour>
			<point x="72.658203125" y="0" type="line"/>
			<point x="72.658203125" y="80.0009765625" type="line"/>
			<point x="196.3413085938" y="107.0009765625" type="line"/>
			<point x="194.3413085938" y="529.1156005859" type="line"/>
			<point x="192.3413085938" y="1405.6954345703" type="line"/>
			<point x="32.3383789062" y="1426.6954345703" type="line"/>
			<point x="32.3383789062" y="1519.9965820312" type="line"/>
			<point x="332.8338012695" y="1533.9965820312" type="line"/>
			<point x="340.8338012695" y="1528.9965820312" type="line"/>
			<point x="351.8338012695" y="1505.9965820312" type="line"/>
			<point x="353.8338012695" y="853.2849121094" type="line"/>
			<point x="420.4154663086" y="931.5625"/>
			<point x="582.2197875977" y="1021.9958496094"/>
			<point x="710.8032836914" y="1021.9958496094" type="qcurve" smooth="yes"/>
			<point x="844.6916503906" y="1021.9958496094"/>
			<point x="999.7978515625" y="885.7607421875"/>
			<point x="999.7978515625" y="746.4020996094" type="qcurve" smooth="yes"/>
			<point x="999.7978515625" y="690.8369140625"/>
			<point x="997.8134765625" y="608.9283447266"/>
			<point x="997.8134765625" y="529.1156005859" type="qcurve" smooth="yes"/>
			<point x="1004.7744140625" y="107.0009765625" type="line"/>
			<point x="1176.0161132812" y="80.0009765625" type="line"/>
			<point x="1176.0161132812" y="0" type="line"/>
			<point x="648.3995361328" y="0" type="line"/>
			<point x="648.3995361328" y="80.0009765625" type="line"/>
			<point x="842.8004150391" y="107.0009765625" type="line"/>
			<point x="836.8316650391" y="529.1156005859" type="line"/>
			<point x="836.8316650391" y="715.8121337891" type="line" smooth="yes"/>
			<point x="836.8316650391" y="788.6649169922"/>
			<point x="722.6352539062" y="899.0070800781"/>
			<point x="648.9763183594" y="899.0070800781" type="qcurve" smooth="yes"/>
			<point x="564.8295898438" y="899.0070800781"/>
			<point x="430.0891723633" y="832.7388916016"/>
			<point x="354.8338012695" y="727.9775390625" type="qcurve"/>
			<point x="354.8338012695" y="529.1022949219" type="line"/>
			<point x="362.8338012695" y="107.0009765625" type="line"/>
			<point x="508.2368774414" y="80.0009765625" type="line"/>
			<point x="508.2368774414" y="0" type="line"/>
		</contour>
	</outline>
	<anchor name="bottom" x="629" y="0"/>
	<anchor name="center" x="347" y="1202"/>
	<anchor name="top" x="304" y="1534"/>
</glyph>
<glyph name="k" format="2">
	<unicode hex="006B"/>
	<advance width="1019"/>
	<outline>
		<contour>
			<point x="75.9527587891" y="0" type="line"/>
			<point x="75.9527587891" y="80.0009765625" type="line"/>
			<point x="222.9556884766" y="107.0009765625" type="line"/>
			<point x="223.9680175781" y="527" type="line"/>
			<point x="220.9556884766" y="1405.6954345703" type="line"/>
			<point x="39.3536376953" y="1426.6954345703" type="line"/>
			<point x="39.3536376953" y="1519.9965820312" type="line"/>
			<point x="362.4605102539" y="1533.9965820312" type="line"/>
			<point x="370.4605102539" y="1528.9965820312" type="line"/>
			<point x="381.4605102539" y="1505.9965820312" type="line"/>
			<point x="383.4481811523" y="547" type="line"/>
			<point x="394.4605102539" y="107.0009765625" type="line"/>
			<point x="541.4634399414" y="80.0009765625" type="line"/>
			<point x="541.4634399414" y="0" type="line"/>
		</contour>
		<contour>
			<point x="303" y="376" type="line"/>
			<point x="303" y="490" type="line"/>
			<point x="837.7270507812" y="889.4681396484" type="line"/>
			<point x="722.7241210938" y="916.4681396484" type="line"/>
			<point x="722.7241210938" y="1001.9692382812" type="line"/>
			<point x="1076.5109863281" y="1001.9692382812" type="line"/>
			<point x="1076.5109863281" y="916.4681396484" type="line"/>
			<point x="939.5080566406" y="892.4681396484" type="line"/>
		</contour>
		<contour>
			<point x="490.5088500977" y="572.0476074219" type="line"/>
			<point x="592.7803955078" y="677.1569824219" type="line"/>
			<point x="1053.5943603516" y="107.0009765625" type="line"/>
			<point x="1166.5972900391" y="80.0009765625" type="line"/>
			<point x="1166.5972900391" y="0" type="line"/>
			<point x="754.1771240234" y="0" type="line"/>
			<point x="748.2629394531" y="86.0322875977" type="line"/>
			<point x="890.0343017578" y="109.958190918" type="line"/>
		</contour>
	</outline>
	<anchor name="bottom" x="608" y="0"/>
	<anchor name="top" x="578" y="1534"/>
</glyph>
<glyph name="l" format="2">
	<unicode hex="006C"/>
	<advance width="522"/>
	<outline>
		<contour>
			<point x="55.9956054688" y="0" type="line"/>
			<point x="55.9956054688" y="83.0009765625" type="line"/>
			<point x="222.9985351562" y="107.0009765625" type="line"/>
			<point x="227.0108642578" y="527" type="line"/>
			<point x="223.9985351562" y="1395.5721435547" type="line"/>
			<point x="53.9956054688" y="1416.5721435547" type="line"/>
			<point x="53.9956054688" y="1509.8732910156" type="line"/>
			<point x="326.2444458008" y="1533.9965820312" type="line"/>
			<point x="363.8615722656" y="1528.9965820312" type="line"/>
			<point x="385.5033569336" y="1507.9965820312" type="line"/>
			<point x="382.491027832" y="527" type="line"/>
			<point x="388.5033569336" y="107.0009765625" type="line"/>
			<point x="546.5062866211" y="83.0009765625" type="line"/>
			<point x="546.5062866211" y="0" type="line"/>
		</contour>
	</outline>
	<anchor name="bottom" x="316" y="0"/>
	<anchor name="center" x="316" y="750"/>
	<anchor name="top" x="316" y="1534"/>
	<anchor name="topright" x="367" y="1000"/>
	<anchor name="centerright" x="746" y="680"/>
	<anchor name="yu_dash" x="321" y="500"/>
	<anchor name="liga" x="632" y="0"/>
</glyph>
<glyph name="m" format="2">
	<unicode hex="006D"/>
	<advance width="1793"/>
	<outline>
		<contour>
			<point x="76.9527587891" y="0" type="line"/>
			<point x="76.9527587891" y="80.0009765625" type="line"/>
			<point x="222.9556884766" y="107.0009765625" type="line"/>
			<point x="225.9680175781" y="529.1156005859" type="line"/>
			<point x="222.9556884766" y="871.6680908203" type="line"/>
			<point x="52.9527587891" y="891.6680908203" type="line"/>
			<point x="52.9527587891" y="989.9692382812" type="line"/>
			<point x="334.0162963867" y="1001.9692382812" type="line"/>
			<point x="369.3619384766" y="979.9075927734" type="line"/>
			<point x="387.4605102539" y="838.8134155273" type="line"/>
			<point x="422.1211547852" y="890.6867675781"/>
			<point x="630.2644042969" y="1022.9692382812"/>
			<point x="748.5684204102" y="1022.9692382812" type="qcurve" smooth="yes"/>
			<point x="846.8978271484" y="1022.9692382812"/>
			<point x="1018.0841674805" y="930.0531616211"/>
			<point x="1021.268371582" y="838.2456054688" type="qcurve"/>
			<point x="1066.8652954102" y="899.7883300781"/>
			<point x="1261.4619750977" y="1022.9692382812"/>
			<point x="1390.3692016602" y="1022.9692382812" type="qcurve" smooth="yes"/>
			<point x="1492.0700683594" y="1022.9692382812"/>
			<point x="1672.1349487305" y="901.5551757812"/>
			<point x="1672.1349487305" y="721.5786132812" type="qcurve" smooth="yes"/>
			<point x="1672.1349487305" y="695.6185302734"/>
			<point x="1669.6174316406" y="542.1022949219"/>
			<point x="1669.6041259766" y="519.1156005859" type="qcurve" smooth="yes"/>
			<point x="1676.1349487305" y="107.0009765625" type="line"/>
			<point x="1816.137878418" y="80.0009765625" type="line"/>
			<point x="1816.137878418" y="0" type="line"/>
			<point x="1365.6395263672" y="0" type="line"/>
			<point x="1365.6395263672" y="80.0009765625" type="line"/>
			<point x="1507.6424560547" y="107.0009765625" type="line"/>
			<point x="1511.5437011719" y="529.1156005859" type="line"/>
			<point x="1511.5437011719" y="702.4921875" type="line" smooth="yes"/>
			<point x="1511.5437011719" y="799"/>
			<point x="1346.7307739258" y="892.2890625"/>
			<point x="1310.5142822266" y="892.2890625" type="qcurve" smooth="yes"/>
			<point x="1216.5559692383" y="892.2890625"/>
			<point x="1067.0495605469" y="785.890625"/>
			<point x="1028.6634521484" y="710.6640625" type="qcurve"/>
			<point x="1026.6387939453" y="681.7039794922"/>
			<point x="1027.6881713867" y="560.0710449219"/>
			<point x="1027.6881713867" y="530.1156005859" type="qcurve" smooth="yes"/>
			<point x="1030.6634521484" y="107.0009765625" type="line"/>
			<point x="1185.6663818359" y="80.0009765625" type="line"/>
			<point x="1185.6663818359" y="0" type="line"/>
			<point x="725.1680297852" y="0" type="line"/>
			<point x="725.1680297852" y="80.0009765625" type="line"/>
			<point x="863.1709594727" y="107.0009765625" type="line"/>
			<point x="868.1832885742" y="529.1156005859" type="line"/>
			<point x="868.1832885742" y="702.4921875" type="line" smooth="yes"/>
			<point x="868.1832885742" y="799"/>
			<point x="737.4509887695" y="889.2890625"/>
			<point x="688.1760864258" y="889.2890625" type="qcurve" smooth="yes"/>
			<point x="594.0836791992" y="889.2890625"/>
			<point x="417.466796875" y="777.890625"/>
			<point x="385.9420166016" y="704.6640625" type="qcurve"/>
			<point x="385.4358520508" y="529.1156005859" type="line"/>
			<point x="394.4481811523" y="107.0009765625" type="line"/>
			<point x="543.4511108398" y="80.0009765625" type="line"/>
			<point x="543.4511108398" y="0" type="line"/>
		</contour>
	</outline>
	<anchor name="bottom" x="958" y="0"/>
	<anchor name="top" x="958" y="1000"/>
</glyph>
<glyph name="n" format="2">
	<unicode hex="006E"/>
	<advance width="1185"/>
	<outline>
		<contour>
			<point x="76.9527587891" y="0" type="line"/>
			<point x="76.9527587891" y="80.0009765625" type="line"/>
			<point x="224.9556884766" y="107.0009765625" type="line"/>
			<point x="225.9680175781" y="529.1156005859" type="line"/>
			<point x="222.9556884766" y="861.5447998047" type="line"/>
			<point x="52.9527587891" y="881.5447998047" type="line"/>
			<point x="52.9527587891" y="979.8459472656" type="line"/>
			<point x="336.7447509766" y="1001.9692382812" type="line"/>
			<point x="369.8063964844" y="984.9692382812" type="line"/>
			<point x="386.4605102539" y="846.3184814453" type="line"/>
			<point x="434.9296875" y="917.6405029297"/>
			<point x="634.7165527344" y="1022.9825439453"/>
			<point x="759.8768920898" y="1022.9825439453" type="qcurve" smooth="yes"/>
			<point x="897.147277832" y="1022.9825439453"/>
			<point x="1045.4468383789" y="895.6153564453"/>
			<point x="1045.4468383789" y="758.3028564453" type="qcurve" smooth="yes"/>
			<point x="1045.4468383789" y="666.6552734375"/>
			<point x="1041.4378051758" y="545.1022949219"/>
			<point x="1041.4378051758" y="529.1156005859" type="qcurve" smooth="yes"/>
			<point x="1045.9686279297" y="107.0009765625" type="line"/>
			<point x="1188.9715576172" y="80.0009765625" type="line"/>
			<point x="1188.9715576172" y="0" type="line"/>
			<point x="738.4732055664" y="0" type="line"/>
			<point x="738.4732055664" y="80.0009765625" type="line"/>
			<point x="880.4761352539" y="107.0009765625" type="line"/>
			<point x="880.4761352539" y="529.1156005859" type="line"/>
			<point x="880.4761352539" y="710.9450683594" type="line" smooth="yes"/>
			<point x="880.4761352539" y="823.2574462891"/>
			<point x="783.6969604492" y="894.6475830078"/>
			<point x="698.2800292969" y="894.6475830078" type="qcurve" smooth="yes"/>
			<point x="586.7553710938" y="894.6475830078"/>
			<point x="422.0765380859" y="802.7751464844"/>
			<point x="385.9543457031" y="723.0166015625" type="qcurve"/>
			<point x="385.4481811523" y="529.1156005859" type="line"/>
			<point x="394.4605102539" y="107.0009765625" type="line"/>
			<point x="543.4634399414" y="80.0009765625" type="line"/>
			<point x="543.4634399414" y="0" type="line"/>
		</contour>
	</outline>
	<anchor name="bottom" x="632" y="0"/>
	<anchor name="top" x="632" y="1000"/>
	<anchor name="liga" x="1264" y="0"/>
</glyph>
<glyph name="o" format="2">
	<unicode hex="006F"/>
	<advance width="1144"/>
	<outline>
		<contour>
			<point x="63.7697753906" y="494.4710083008" type="qcurve" smooth="yes"/>
			<point x="63.7697753906" y="713.733581543"/>
			<point x="358.4916992188" y="1018.1462402344"/>
			<point x="567.3284301758" y="1018.1462402344" type="qcurve" smooth="yes"/>
			<point x="789.7439575195" y="1018.1462402344"/>
			<point x="1079.9240722656" y="738.4636230469"/>
			<point x="1079.9240722656" y="507.0511474609" type="qcurve" smooth="yes"/>
			<point x="1079.9240722656" y="280.6253662109"/>
			<point x="787.6699829102" y="-21.13671875"/>
			<point x="575.3284301758" y="-21.13671875" type="qcurve" smooth="yes"/>
			<point x="358.0032348633" y="-21.13671875"/>
			<point x="63.7697753906" y="255.9569702148"/>
		</contour>
		<contour>
			<point x="232.3362426758" y="524.0511474609" type="qcurve" smooth="yes"/>
			<point x="233.3362426758" y="337.4429931641"/>
			<point x="419.3157348633" y="85.6424560547"/>
			<point x="568.3421020508" y="85.6424560547" type="qcurve" smooth="yes"/>
			<point x="717.3684692383" y="85.6424560547"/>
			<point x="906.3206176758" y="310.0116577148"/>
			<point x="906.3206176758" y="508.0511474609" type="qcurve" smooth="yes"/>
			<point x="906.3206176758" y="688.6200561523"/>
			<point x="721.3684692383" y="900.7003173828"/>
			<point x="571.3421020508" y="900.7003173828" type="qcurve" smooth="yes"/>
			<point x="408.3157348633" y="900.7003173828"/>
			<point x="231.3362426758" y="703.1298217773"/>
		</contour>
	</outline>
	<anchor name="bottom" x="584" y="0"/>
	<anchor name="center" x="584" y="500"/>
	<anchor name="ogonek" x="747" y="0"/>
	<anchor name="top" x="584" y="1000"/>
	<anchor name="topright" x="751" y="1000"/>
	<anchor name="GRKtop" x="584" y="1000"/>
	<anchor name="yu_dash" x="150" y="500"/>
</glyph>
<glyph name="p" format="2">
	<unicode hex="0070"/>
	<advance width="1101"/>
	<outline>
		<contour>
			<point x="40.8747558594" y="-480" type="line"/>
			<point x="40.8747558594" y="-398.9990234375" type="line"/>
			<point x="181.1982421875" y="-366.9990234375" type="line"/>
			<point x="177.1982421875" y="427.9846191406" type="line"/>
			<point x="173.1982421875" y="871.6680908203" type="line"/>
			<point x="18.8747558594" y="891.6680908203" type="line"/>
			<point x="18.8747558594" y="987.9692382812" type="line"/>
			<point x="306.1968994141" y="1001.9692382812" type="line"/>
			<point x="329.1968994141" y="983.9692382812" type="line"/>
			<point x="329.1968994141" y="823.9692382812" type="line"/>
			<point x="340.5780639648" y="898.0091552734"/>
			<point x="526.6334228516" y="1022.1022949219"/>
			<point x="627.8734741211" y="1022.1022949219" type="qcurve" smooth="yes"/>
			<point x="850.6275634766" y="1022.1022949219"/>
			<point x="1036.7327270508" y="749.6276855469"/>
			<point x="1036.7327270508" y="526.9846191406" type="qcurve" smooth="yes"/>
			<point x="1036.7327270508" y="287.9769287109"/>
			<point x="796.5895996094" y="-26"/>
			<point x="621.3446044922" y="-26" type="qcurve" smooth="yes"/>
			<point x="495.4117431641" y="-26"/>
			<point x="373.7164306641" y="53"/>
			<point x="341.1968994141" y="97" type="qcurve"/>
			<point x="345.1968994141" y="-366.9990234375" type="line"/>
			<point x="502.9212646484" y="-398.9990234375" type="line"/>
			<point x="502.9212646484" y="-480" type="line"/>
		</contour>
		<contour>
			<point x="340.1968994141" y="244.2238769531" type="line"/>
			<point x="319.3726806641" y="173.0014648438"/>
			<point x="464.1226806641" y="73.2232666016"/>
			<point x="570.1343994141" y="73.2232666016" type="qcurve" smooth="yes"/>
			<point x="691.1607666016" y="73.2232666016"/>
			<point x="861.1539306641" y="327.9304199219"/>
			<point x="861.1539306641" y="521.9846191406" type="qcurve" smooth="yes"/>
			<point x="861.1539306641" y="705.059753418"/>
			<point x="722.2974853516" y="906.1009521484"/>
			<point x="595.2711181641" y="906.1009521484" type="qcurve" smooth="yes"/>
			<point x="466.3140869141" y="906.1009521484"/>
			<point x="349.1676025391" y="790.8966064453"/>
			<point x="336.1968994141" y="704.4122314453" type="qcurve"/>
			<point x="336.1968994141" y="430.9846191406" type="line"/>
		</contour>
	</outline>
	<anchor name="bottom" x="599" y="0"/>
	<anchor name="top" x="599" y="1000"/>
</glyph>
<glyph name="s" format="2">
	<unicode hex="0073"/>
	<advance width="963"/>
	<outline>
		<contour>
			<point x="146.2694702148" y="10.5895996094" type="line"/>
			<point x="146.2694702148" y="298.8208007812" type="line"/>
			<point x="257.8052978516" y="298.8208007812" type="line"/>
			<point x="271.2127075195" y="274" type="line" smooth="yes"/>
			<point x="299.7792358398" y="167.7626953125"/>
			<point x="379.9210205078" y="77.2236328125"/>
			<point x="523.8490600586" y="77.2236328125" type="qcurve" smooth="yes"/>
			<point x="642.0018310547" y="77.2236328125"/>
			<point x="762.4730834961" y="198.7061767578"/>
			<point x="762.4730834961" y="279.9542236328" type="qcurve" smooth="yes"/>
			<point x="762.4730834961" y="374.7959594727"/>
			<point x="702.0247802734" y="434.986328125"/>
			<point x="480.8844604492" y="484.0348510742" type="qcurve" smooth="yes"/>
			<point x="277.4768066406" y="525.9907836914"/>
			<point x="166.3623046875" y="637.1232299805"/>
			<point x="166.3623046875" y="751.9428710938" type="qcurve" smooth="yes"/>
			<point x="166.3623046875" y="872.3682861328"/>
			<point x="334.375" y="1029.9692382812"/>
			<point x="487.3521728516" y="1029.9692382812" type="qcurve" smooth="yes"/>
			<point x="606.2380981445" y="1029.9692382812"/>
			<point x="680.9044189453" y="974.9938964844"/>
			<point x="716.5314941406" y="939.9815673828" type="qcurve"/>
			<point x="748.9389038086" y="991.3796386719" type="line"/>
			<point x="853.6600952148" y="991.3796386719" type="line"/>
			<point x="853.6600952148" y="732.1484375" type="line"/>
			<point x="735.0501708984" y="732.1484375" type="line"/>
			<point x="714.1365966797" y="789.9555664062" type="line" smooth="yes"/>
			<point x="689.4302978516" y="877.8269042969"/>
			<point x="621.4841918945" y="914.0789794922"/>
			<point x="507.9696655273" y="914.0789794922" type="qcurve" smooth="yes"/>
			<point x="424.9440917969" y="914.0789794922"/>
			<point x="326.0041503906" y="842.1949462891"/>
			<point x="326.0041503906" y="774.4619140625" type="qcurve" smooth="yes"/>
			<point x="326.0041503906" y="703.6381225586"/>
			<point x="410.8580932617" y="630.7659301758"/>
			<point x="687.9719238281" y="588.7298583984" type="qcurve" smooth="yes"/>
			<point x="753.9912109375" y="590.1938476562"/>
			<point x="928.5840454102" y="428.0101928711"/>
			<point x="928.5840454102" y="275.9108886719" type="qcurve" smooth="yes"/>
			<point x="928.5840454102" y="138.0503540039"/>
			<point x="747.14453125" y="-31"/>
			<point x="569.8831176758" y="-31" type="qcurve" smooth="yes"/>
			<point x="420.2041015625" y="-31"/>
			<point x="335.5288085938" y="49.0123291016"/>
			<point x="287.7067260742" y="111.9876708984" type="qcurve"/>
			<point x="243.4844970703" y="10.5895996094" type="line"/>
		</contour>
	</outline>
	<anchor name="bottom" x="468" y="0"/>
	<anchor name="top" x="416" y="1000"/>
</glyph>
<glyph name="u" format="2">
	<unicode hex="0075"/>
	<advance width="1225"/>
	<outline>
		<contour>
			<point x="17.1531982422" y="894.5350341797" type="line"/>
			<point x="17.1531982422" y="987.8361816406" type="line"/>
			<point x="295.1301269531" y="1001.8361816406" type="line"/>
			<point x="344.1301269531" y="995.8361816406" type="line"/>
			<point x="360.1301269531" y="969.8361816406" type="line"/>
			<point x="357.1301269531" y="522.7338867188" type="line"/>
			<point x="359.1301269531" y="368.6680908203" type="line" smooth="yes"/>
			<point x="360.1301269531" y="218.6680908203"/>
			<point x="474.9973144531" y="108.6680908203"/>
			<point x="471.3488769531" y="108.6680908203" type="qcurve" smooth="yes"/>
			<point x="553.1691894531" y="108.6680908203"/>
			<point x="759.0207519531" y="201.6680908203"/>
			<point x="842.2238769531" y="300.6680908203" type="qcurve"/>
			<point x="842.2238769531" y="472.7338867188" type="line"/>
			<point x="840.2238769531" y="874.5350341797" type="line"/>
			<point x="665.2209472656" y="894.5350341797" type="line"/>
			<point x="665.2209472656" y="987.8361816406" type="line"/>
			<point x="943.7163696289" y="1001.8361816406" type="line"/>
			<point x="988.7163696289" y="995.8361816406" type="line"/>
			<point x="1004.7163696289" y="968.8361816406" type="line"/>
			<point x="1002.7163696289" y="472.7338867188" type="line"/>
			<point x="1004.7163696289" y="112.8010253906" type="line"/>
			<point x="1180.7192993164" y="96.8010253906" type="line"/>
			<point x="1180.7192993164" y="14" type="line"/>
			<point x="881.2238769531" y="-1" type="line"/>
			<point x="856.2238769531" y="21" type="line"/>
			<point x="843.2238769531" y="182" type="line"/>
			<point x="793.9290771484" y="103"/>
			<point x="562.8667602539" y="-18"/>
			<point x="427.8557128906" y="-18" type="qcurve" smooth="yes"/>
			<point x="319.8727416992" y="-18"/>
			<point x="197.1561279297" y="149.6787719727"/>
			<point x="197.1561279297" y="295" type="qcurve" smooth="yes"/>
			<point x="197.1561279297" y="372.9068603516"/>
			<point x="197.1428222656" y="511.7604980469"/>
			<point x="197.1561279297" y="545.7338867188" type="qcurve" smooth="yes"/>
			<point x="197.1561279297" y="874.5350341797" type="line"/>
		</contour>
	</outline>
	<anchor name="bottom" x="622" y="0"/>
	<anchor name="ogonek" x="1030" y="20"/>
	<anchor name="top" x="622" y="1000"/>
	<anchor name="topright" x="1005" y="1000"/>
	<anchor name="cy_descender" x="1178" y="80"/>
</glyph>
<glyph name="v" format="2">
	<unicode hex="0076"/>
	<advance width="998"/>
	<outline>
		<contour>
			<point x="-36.1818237305" y="907.4681396484" type="line"/>
			<point x="-36.1818237305" y="1001.9692382812" type="line"/>
			<point x="424.2674560547" y="1001.9692382812" type="line"/>
			<point x="424.2674560547" y="907.4681396484" type="line"/>
			<point x="267.2645263672" y="884.4681396484" type="line"/>
			<point x="419.3729248047" y="526.3782348633" type="line"/>
			<point x="486" y="301" type="line"/>
			<point x="523" y="187" type="line"/>
			<point x="533" y="187" type="line"/>
			<point x="570" y="301" type="line"/>
			<point x="634.6746826172" y="557.057434082" type="line"/>
			<point x="767.5484008789" y="884.4681396484" type="line"/>
			<point x="604.5454711914" y="907.4681396484" type="line"/>
			<point x="604.5454711914" y="1001.9692382812" type="line"/>
			<point x="1039.7008666992" y="1001.9692382812" type="line"/>
			<point x="1039.7008666992" y="907.4681396484" type="line"/>
			<point x="900.6979370117" y="884.4681396484" type="line"/>
			<point x="740.4164428711" y="524.1553344727" type="line"/>
			<point x="528.3835449219" y="-7" type="line"/>
			<point x="452.8646240234" y="-7" type="line"/>
			<point x="278.1027832031" y="485.3901977539" type="line"/>
			<point x="109.821105957" y="883.4681396484" type="line"/>
		</contour>
	</outline>
	<anchor name="bottom" x="513" y="0"/>
	<anchor name="top" x="513" y="1000"/>
</glyph>
<glyph name="w" format="2">
	<unicode hex="0077"/>
	<advance width="1586"/>
	<outline>
		<contour>
			<point x="446.3690795898" y="-7" type="line"/>
			<point x="261.2471923828" y="498.4323730469" type="line"/>
			<point x="98.9319458008" y="885.4681396484" type="line"/>
			<point x="-45.0709838867" y="906.4681396484" type="line"/>
			<point x="-45.0709838867" y="1001.9692382812" type="line"/>
			<point x="434.6626586914" y="1001.9692382812" type="line"/>
			<point x="434.6626586914" y="906.4681396484" type="line"/>
			<point x="268.6597290039" y="886.4681396484" type="line"/>
			<point x="380.7193603516" y="532.4846191406" type="line"/>
			<point x="483" y="294" type="line"/>
			<point x="521" y="180" type="line"/>
			<point x="531" y="180" type="line"/>
			<point x="568" y="294" type="line"/>
			<point x="597.753112793" y="449.3812255859" type="line"/>
			<point x="725" y="747" type="line"/>
			<point x="644.9783325195" y="885.4681396484" type="line"/>
			<point x="499.975402832" y="906.4681396484" type="line"/>
			<point x="499.975402832" y="1001.9692382812" type="line"/>
			<point x="970.0545654297" y="1001.9692382812" type="line"/>
			<point x="970.0545654297" y="906.4681396484" type="line"/>
			<point x="804.0516357422" y="886.4681396484" type="line"/>
			<point x="938.9076538086" y="469.1171264648" type="line"/>
			<point x="1045" y="294" type="line"/>
			<point x="1082" y="180" type="line"/>
			<point x="1092" y="180" type="line"/>
			<point x="1128" y="294" type="line"/>
			<point x="1166.7662963867" y="511.0288696289" type="line"/>
			<point x="1321.3578491211" y="885.4681396484" type="line"/>
			<point x="1176.3549194336" y="906.4681396484" type="line"/>
			<point x="1176.3549194336" y="1001.9692382812" type="line"/>
			<point x="1612.0410766602" y="1001.9692382812" type="line"/>
			<point x="1612.0410766602" y="906.4681396484" type="line"/>
			<point x="1465.0381469727" y="885.4681396484" type="line"/>
			<point x="1308" y="496" type="line"/>
			<point x="1072.6752319336" y="-7" type="line"/>
			<point x="985.46484375" y="-7" type="line"/>
			<point x="830" y="480" type="line"/>
			<point x="790" y="595" type="line"/>
			<point x="780" y="595" type="line"/>
			<point x="741" y="480" type="line"/>
			<point x="538.8264160156" y="-7" type="line"/>
		</contour>
	</outline>
	<anchor name="bottom" x="787" y="0"/>
	<anchor name="top" x="787" y="1000"/>
</glyph>
<glyph name="x" format="2">
	<unicode hex="0078"/>
	<advance width="1041"/>
	<outline>
		<contour>
			<point x="-26.828918457" y="0" type="line"/>
			<point x="-26.828918457" y="80.0009765625" type="line"/>
			<point x="161.1740112305" y="107.0009765625" type="line"/>
			<point x="418.6156616211" y="465.4114990234" type="line"/>
			<point x="108.8047485352" y="885.4681396484" type="line"/>
			<point x="-61.1981811523" y="906.4681396484" type="line"/>
			<point x="-61.1981811523" y="1001.9692382812" type="line"/>
			<point x="446.5604858398" y="1001.9692382812" type="line"/>
			<point x="446.5604858398" y="906.4681396484" type="line"/>
			<point x="261.5575561523" y="885.4681396484" type="line"/>
			<point x="460.0603027344" y="654.6575927734" type="line"/>
			<point x="497.5780029297" y="591.24609375" type="line"/>
			<point x="501.5780029297" y="591.24609375" type="line"/>
			<point x="533.7339477539" y="658.9471435547" type="line"/>
			<point x="722.5803222656" y="885.4681396484" type="line"/>
			<point x="516.5773925781" y="906.4681396484" type="line"/>
			<point x="516.5773925781" y="1001.9692382812" type="line"/>
			<point x="990.9191894531" y="1001.9692382812" type="line"/>
			<point x="990.9191894531" y="906.4681396484" type="line"/>
			<point x="833.9162597656" y="885.4681396484" type="line"/>
			<point x="566.7327880859" y="521.1152954102" type="line"/>
			<point x="876.8783569336" y="107.0009765625" type="line"/>
			<point x="1065.8812866211" y="80.0009765625" type="line"/>
			<point x="1065.8812866211" y="0" type="line"/>
			<point x="538.344909668" y="0" type="line"/>
			<point x="538.344909668" y="80.0009765625" type="line"/>
			<point x="724.3478393555" y="106.0009765625" type="line"/>
			<point x="531.9085083008" y="333.387878418" type="line"/>
			<point x="491.1901855469" y="401.057434082" type="line"/>
			<point x="487.1901855469" y="401.057434082" type="line"/>
			<point x="457.0633544922" y="329.6414794922" type="line"/>
			<point x="281.0653686523" y="107.0009765625" type="line"/>
			<point x="454.0682983398" y="80.0009765625" type="line"/>
			<point x="454.0682983398" y="0" type="line"/>
		</contour>
	</outline>
	<anchor name="bottom" x="522" y="0"/>
	<anchor name="top" x="522" y="1000"/>
	<anchor name="cy_descender" x="1043" y="80"/>
</glyph>
<glyph name="y" format="2">
	<unicode hex="0079"/>
	<advance width="859"/>
	<outline>
		<contour>
			<point x="-61.6510009766" y="907.4681396484" type="line"/>
			<point x="-61.6510009766" y="1001.9692382812" type="line"/>
			<point x="393.5640869141" y="1001.9692382812" type="line"/>
			<point x="393.5640869141" y="907.4681396484" type="line"/>
			<point x="242.5611572266" y="883.4681396484" type="line"/>
			<point x="396.8533325195" y="480.7108764648" type="line"/>
			<point x="449.6240844727" y="285.6068725586" type="line"/>
			<point x="467.8630371094" y="188.5549926758" type="line"/>
			<point x="471.8630371094" y="188.5549926758" type="line"/>
			<point x="491.9662475586" y="281.2489013672" type="line"/>
			<point x="608.9727783203" y="534.6419677734" type="line"/>
			<point x="745.1064453125" y="884.4681396484" type="line"/>
			<point x="585.103515625" y="907.4681396484" type="line"/>
			<point x="585.103515625" y="1001.9692382812" type="line"/>
			<point x="1026.3333740234" y="1001.9692382812" type="line"/>
			<point x="1026.3333740234" y="907.4681396484" type="line"/>
			<point x="887.3304443359" y="884.4681396484" type="line"/>
			<point x="727.8627929688" y="503.9743652344" type="line"/>
			<point x="418.1730957031" y="-304.5205078125" type="line" smooth="yes"/>
			<point x="373.5422973633" y="-387.5089111328"/>
			<point x="242.3933105469" y="-498"/>
			<point x="172.9475097656" y="-498" type="qcurve"/>
			<point x="23.5738525391" y="-467.5551757812" type="line"/>
			<point x="23.5738525391" y="-386.5540771484" type="line"/>
			<point x="121.4276123047" y="-386.5540771484" type="line" smooth="yes"/>
			<point x="194.4647216797" y="-386.5540771484"/>
			<point x="316.3555908203" y="-291.888671875"/>
			<point x="357.2448730469" y="-218.3345947266" type="qcurve" smooth="yes"/>
			<point x="420.4816894531" y="-34.1665649414" type="line"/>
			<point x="424.3707275391" y="-30.283203125" type="line"/>
			<point x="251.3980712891" y="438.5870361328" type="line"/>
			<point x="86.3519287109" y="883.4681396484" type="line"/>
		</contour>
	</outline>
	<anchor name="bottom" x="782" y="0"/>
	<anchor name="top" x="524" y="1000"/>
</glyph>
<glyph name="z" format="2">
	<unicode hex="007A"/>
	<advance width="750"/>
	<outline>
		<contour>
			<point x="-38.509765625" y="0" type="line"/>
			<point x="-38.509765625" y="90.556640625" type="line"/>
			<point x="628.2821044922" y="894.5233154297" type="line"/>
			<point x="155.0930175781" y="894.5233154297" type="line"/>
			<point x="108.9821777344" y="743.7380371094" type="line"/>
			<point x="-1.0166015625" y="743.7380371094" type="line"/>
			<point x="-1.0166015625" y="1001.9692382812" type="line"/>
			<point x="793.2932739258" y="1001.9692382812" type="line"/>
			<point x="793.2932739258" y="915.9682617188" type="line"/>
			<point x="119.8450317383" y="106.4459228516" type="line"/>
			<point x="680.5404052734" y="106.4459228516" type="line"/>
			<point x="726.6512451172" y="257.2312011719" type="line"/>
			<point x="835.6500244141" y="257.2312011719" type="line"/>
			<point x="835.6500244141" y="0" type="line"/>
		</contour>
	</outline>
	<anchor name="bottom" x="443" y="0"/>
	<anchor name="top" x="443" y="1000"/>
	<anchor name="_liga" x="0" y="0"/>
</glyph>
<glyph name="idotless" format="2">
	<unicode hex="0131"/>
	<advance width="536"/>
	<outline>
		<contour>
			<point x="74.0384521484" y="0" type="line"/>
			<point x="74.0384521484" y="82.0009765625" type="line"/>
			<point x="234.0413818359" y="107.0009765625" type="line"/>
			<point x="235.0537109375" y="527" type="line"/>
			<point x="229.510559082" y="864.5447998047" type="line"/>
			<point x="52.0384521484" y="881.5447998047" type="line"/>
			<point x="52.0384521484" y="978.8459472656" type="line"/>
			<point x="332.7564697266" y="1004.9692382812" type="line"/>
			<point x="381.9660644531" y="1002.9692382812" type="line"/>
			<point x="402.0770263672" y="972.2658081055" type="line"/>
			<point x="394.5338745117" y="528" type="line"/>
			<point x="401.5462036133" y="106.0009765625" type="line"/>
			<point x="560.5491333008" y="82.0009765625" type="line"/>
			<point x="560.5491333008" y="0" type="line"/>
		</contour>
	</outline>
	<anchor name="bottom" x="320" y="0"/>
	<anchor name="top" x="320" y="1000"/>
	<anchor name="ogonek" x="513" y="0"/>
	<anchor name="liga" x="639" y="0"/>
</glyph>
